<svg width="100" height="61" viewBox="0 0 100 61" fill="none" xmlns="http://www.w3.org/2000/svg">
<path d="M7.63811 54.0771H15.0127V60.7595H0.5V31.7083H7.63811V54.0771Z" fill="white"/>
<path d="M91.9869 31.7083H99.4996V60.7595H92.3607V43.4946L84.8082 55.9859H82.1932L74.5993 43.4946V60.7595H67.502V31.7083H74.9716L83.48 45.777L91.9869 31.7083Z" fill="white"/>
<path d="M5.70831 22.3405H16.4338V27.2017H0.5V0.19519H16.0866V5.05636H5.70831V11.1521H15.1992V16.0133H5.70831V22.3405Z" fill="white"/>
<path d="M60.4174 0H65.6643V17.0527C65.6643 23.4186 61.8063 27.5081 54.746 27.5081C47.6857 27.5081 43.7891 23.4186 43.7891 17.0527V0H49.036V16.3583C49.036 20.8723 51.7753 22.5313 54.746 22.5313C57.6781 22.5313 60.4174 20.8723 60.4174 16.3583V0Z" fill="white"/>
<path d="M27.7621 0.19519C36.7514 0.19519 42.1141 5.75079 42.1141 13.6985C42.1141 21.6461 36.7514 27.2017 27.7621 27.2017H19.3516V0.19519H27.7621ZM27.7621 22.3405C32.6619 22.3405 36.8672 19.7171 36.8672 13.6985C36.8672 7.67997 32.6619 5.05636 27.7621 5.05636H24.5985V22.3405H27.7621Z" fill="white"/>
<mask id="mask0_156_105" style="mask-type:luminance" maskUnits="userSpaceOnUse" x="15" y="31" width="51" height="30">
<path d="M65.6737 31.6765H15.2949V60.7588H65.6737V31.6765Z" fill="white"/>
</mask>
<g mask="url(#mask0_156_105)">
<path d="M65.6737 46.2178C65.6737 54.2334 59.1849 60.7594 51.202 60.7594C49.4167 60.7594 47.7054 60.4301 46.1276 59.8295C46.1177 59.8249 46.1128 59.8249 46.1079 59.8249H46.0981V59.8188H46.0881C46.0781 59.8142 46.0732 59.8142 46.0732 59.8142C44.5203 59.2183 43.0859 58.3528 41.8396 57.285C41.3598 56.8867 40.9048 56.4455 40.4844 55.9675C38.1549 53.3938 36.7354 49.9647 36.7354 46.2176C36.7354 44.8758 36.3546 43.6234 35.7067 42.555L35.7017 42.55V42.5449H35.6968C35.6027 42.3859 35.4939 42.2269 35.3852 42.0778C34.1141 40.3435 32.0714 39.2152 29.7666 39.2152C25.9237 39.2152 22.7979 42.356 22.7979 46.2174C22.7979 50.0789 25.9237 53.2192 29.7666 53.2192C32.0714 53.2192 34.1141 52.0917 35.3852 50.3572C36.0627 52.9756 37.3735 55.3471 39.1291 57.285C36.6067 59.4512 33.3374 60.7579 29.7666 60.7579C24.7959 60.7579 20.3991 58.2241 17.7926 54.3774C17.7876 54.3682 17.7777 54.3528 17.7728 54.3421C16.205 52.0227 15.2949 49.2243 15.2949 46.2178C15.2949 45.9196 15.3049 45.6263 15.3246 45.3381C15.7747 37.7295 22.0857 31.6765 29.7666 31.6765C32.749 31.6765 35.5238 32.5911 37.8234 34.1563C37.8383 34.1613 37.8433 34.1664 37.8433 34.1664C38.2884 34.4696 38.7187 34.7976 39.1291 35.1504C39.6139 35.5481 40.0689 35.9903 40.4842 36.4674C42.8188 39.0417 44.2383 42.4706 44.2383 46.2178C44.2383 47.2762 44.4756 48.2851 44.8961 49.1845C44.8961 49.1845 44.901 49.1896 44.9061 49.1995C45.0989 49.6119 45.3264 49.9946 45.5885 50.3574C46.8596 52.0917 48.8972 53.2192 51.202 53.2192C55.0451 53.2192 58.1709 50.0792 58.1709 46.2178C58.1709 44.1057 57.2361 42.2073 55.7573 40.9201C55.7473 40.9151 55.7424 40.91 55.7424 40.91C54.5207 39.8565 52.9331 39.2154 51.202 39.2154C48.8972 39.2154 46.8596 40.3435 45.5884 42.078C44.9059 39.459 43.6001 37.0884 41.8394 35.1502C44.367 32.9836 47.6361 31.6765 51.202 31.6765C52.8936 31.6765 54.5207 31.9699 56.0292 32.5114H56.0343C59.7586 33.8384 62.7754 36.6561 64.3929 40.2392L64.3979 40.2442C64.3979 40.2542 64.4028 40.2691 64.4126 40.2939C65.2238 42.1028 65.6739 44.1106 65.6739 46.2178H65.6737Z" fill="white"/>
</g>
</svg>
